<svg width="100" height="100" viewBox="0 0 100 100" fill="none" xmlns="http://www.w3.org/2000/svg">
<path d="M13.937 90.0037L5.9126 0H94.0876L86.0546 89.9895L49.9462 100L13.937 90.0037Z" fill="#C4C4C4"/>
<path d="M79.1773 84.2594L86.0422 7.35901H50V92.3485L79.1773 84.2594Z" fill="#EBEBEB"/>
<path d="M24.3084 40.7402L25.2977 51.7787H49.9998V40.7402H24.3084ZM23.3238 29.4365H49.9998V18.3978H22.3203L23.3238 29.4365ZM49.9998 69.4086L49.9514 69.4215L37.6576 66.1019L36.8719 57.298H25.7906L27.3373 74.6303L49.949 80.9076L49.9998 80.8933V69.4086Z" fill="#EBEBEB"/>
<path d="M49.9619 40.7402V51.7787H63.5547L62.2734 66.0949L49.9619 69.4178V80.9021L72.5916 74.6303L72.7576 72.7652L75.3514 43.7043L75.6209 40.7402L77.6137 18.3978H49.9619V29.4365H65.5164L64.5117 40.7402H49.9619Z" fill="white"/>
</svg>
