<svg width="100" height="100" viewBox="0 0 100 100" fill="none" xmlns="http://www.w3.org/2000/svg">
<path d="M13.8672 89.8438L5.85938 0H93.9453L85.9375 89.8438L49.8047 100" fill="#C4C4C4"/>
<path d="M50 92.1875L79.1016 84.1797L85.9375 7.22656H50" fill="#EBEBEB"/>
<path d="M50 40.625H35.3516L34.375 29.2969H50V18.3594H49.8047H22.2656L22.4609 21.2891L25.1953 51.7578H50V40.625ZM50 69.3359H49.8047L37.5 66.0156L36.7188 57.2266H30.8594H25.7812L27.1484 74.6094L49.8047 80.8594H50V69.3359Z" fill="#EBEBEB"/>
<path d="M49.8047 40.625V51.7578H63.4766L62.1094 66.0156L49.8047 69.3359V80.8594L72.4609 74.6094L72.6562 72.6562L75.1953 43.5547L75.5859 40.625H72.4609H49.8047ZM49.8047 18.3594V25.1953V29.2969H76.5625L76.7578 26.9531L77.3438 21.2891L77.5391 18.3594H49.8047Z" fill="white"/>
</svg>
