<svg width="88" height="100" viewBox="0 0 88 100" fill="none" xmlns="http://www.w3.org/2000/svg">
<g clip-path="url(#clip0_22_65)">
<path d="M8.16125 89.8851L-0.00341797 0.00512695L87.9555 0.0394317L79.8594 89.8165L43.9074 99.9708L8.16125 89.8851ZM73.2385 84.9794L80.0652 7.99826H44.0446L44.3191 92.9039L73.2385 84.9794V84.9794ZM40.6827 19.2847H31.9349L31.8319 65.3568L14.8508 60.7255L14.8851 71.2573L40.6827 78.2212V19.2847V19.2847Z" fill="#C4C4C4"/>
<path opacity="0.986" d="M14.8849 71.2572L14.8506 60.7255C14.8506 60.7255 25.6911 63.7786 31.8317 65.3567L31.9346 19.319H40.6825V78.2211L14.8849 71.2572V71.2572Z" fill="#EBEBEB" fill-opacity="0.9216"/>
<path d="M44.0444 7.96399H80.065L73.2383 84.945L44.0444 92.8695V7.96399ZM71.3858 72.0462L73.7528 43.2641L56.2571 45.2195V29.8507L74.9192 29.7821L75.6739 19.2847L47.5093 19.4219L47.8866 57.638L64.9021 54.7221L64.6619 63.2298L47.5093 67.7924L47.6808 78.2212L71.3858 72.0462Z" fill="#EBEBEB"/>
</g>
<defs>
<clipPath id="clip0_22_65">
<rect width="87.96" height="100" fill="white"/>
</clipPath>
</defs>
</svg>
